<svg xmlns="http://www.w3.org/2000/svg" width="96" height="96" fill="none"><rect width="96" height="96" fill="url(#a)" rx="48"/><rect width="67" height="67" x="14.5" y="14.5" fill="#1C1C21" rx="33.5"/><rect width="67" height="67" x="14.5" y="14.5" stroke="url(#b)" rx="33.5"/><g clip-path="url(#c)" filter="url(#e)" shape-rendering="crispEdges"><path fill="url(#f)" fill-rule="evenodd" d="M33 30.083c.69 0 1.25.56 1.25 1.25v33.334a1.25 1.25 0 0 1-2.5 0V31.333c0-.69.56-1.25 1.25-1.25m30 0c.69 0 1.25.56 1.25 1.25v33.334a1.25 1.25 0 0 1-2.5 0V31.333c0-.69.56-1.25 1.25-1.25" clip-rule="evenodd"/><path fill="url(#g)" d="M48 34.667c-3.143 0-4.714 0-5.69.976-.977.976-.977 2.548-.977 5.69v13.334c0 3.142 0 4.714.977 5.69.976.976 2.547.976 5.69.976s4.714 0 5.69-.976c.977-.976.977-2.548.977-5.69V41.333c0-3.142 0-4.714-.977-5.69-.976-.976-2.547-.976-5.69-.976"/><path stroke="url(#h)" stroke-width=".5" d="M33 30.333a1 1 0 0 1 1 1v33.334a1 1 0 1 1-2 0V31.333a1 1 0 0 1 1-1zm30 0a1 1 0 0 1 1 1v33.334a1 1 0 1 1-2 0V31.333a1 1 0 0 1 1-1zM41.583 54.667V41.333c0-1.578 0-2.737.12-3.624.118-.88.35-1.455.783-1.89.434-.433 1.01-.664 1.89-.783.887-.119 2.046-.12 3.624-.12s2.737.001 3.624.12c.88.119 1.456.35 1.89.784s.664 1.009.783 1.889c.12.887.12 2.046.12 3.624v13.334c0 1.578 0 2.737-.12 3.624-.118.88-.35 1.455-.783 1.89-.434.433-1.01.664-1.89.782-.887.12-2.046.12-3.624.12s-2.737 0-3.624-.12c-.88-.118-1.456-.349-1.89-.783s-.664-1.01-.783-1.89c-.12-.886-.12-2.045-.12-3.623z"/></g><defs><linearGradient id="a" x1="48" x2="48" y1="0" y2="96" gradientUnits="userSpaceOnUse"><stop stop-color="#131316"/><stop offset="1" stop-color="#131316" stop-opacity="0"/></linearGradient><linearGradient id="b" x1="48" x2="48" y1="14" y2="82" gradientUnits="userSpaceOnUse"><stop stop-color="#474752"/><stop offset="1" stop-color="#474752" stop-opacity="0"/></linearGradient><linearGradient id="h" x1="48" x2="48" y1="30.083" y2="65.917" gradientUnits="userSpaceOnUse"><stop offset=".735" stop-color="#fff" stop-opacity="0"/><stop offset="1" stop-color="#fff" stop-opacity=".8"/></linearGradient><radialGradient id="f" cx="0" cy="0" r="1" gradientTransform="matrix(0 62.2817 -56.4881 0 48 28.377)" gradientUnits="userSpaceOnUse"><stop stop-color="#fff"/><stop offset="1" stop-color="#fff" stop-opacity="0"/></radialGradient><radialGradient id="g" cx="0" cy="0" r="1" gradientTransform="matrix(0 62.2817 -56.4881 0 48 28.377)" gradientUnits="userSpaceOnUse"><stop stop-color="#fff"/><stop offset="1" stop-color="#fff" stop-opacity="0"/></radialGradient><clipPath id="c"><rect width="40" height="40" x="28" y="28" fill="#fff" rx="5"/></clipPath><filter id="e" width="46.5" height="49.833" x="24.75" y="26.083" color-interpolation-filters="sRGB" filterUnits="userSpaceOnUse"><feFlood flood-opacity="0" result="BackgroundImageFix"/><feColorMatrix in="SourceAlpha" result="hardAlpha" values="0 0 0 0 0 0 0 0 0 0 0 0 0 0 0 0 0 0 127 0"/><feOffset dy="3"/><feGaussianBlur stdDeviation="3.5"/><feComposite in2="hardAlpha" operator="out"/><feColorMatrix values="0 0 0 0 0 0 0 0 0 0 0 0 0 0 0 0 0 0 0.18 0"/><feBlend in2="BackgroundImageFix" result="effect1_dropShadow_1726_167"/><feBlend in="SourceGraphic" in2="effect1_dropShadow_1726_167" result="shape"/></filter></defs></svg>