<svg xmlns="http://www.w3.org/2000/svg" width="81" height="81" fill="none"><g filter="url(#a)"><rect width="80" height="80" x=".641" y=".364" fill="url(#b)" fill-opacity=".2" rx="40"/><rect width="79" height="79" x="1.141" y=".864" stroke="url(#c)" stroke-opacity=".1" rx="39.5"/><rect width="56" height="56" x="12.641" y="12.364" fill="#D85040" rx="28"/><path fill="#fff" d="M32.64 39.864v-9.771a1 1 0 0 1 1.5-.867l8.5 4.888 8.493 4.883a1 1 0 0 1 0 1.734l-8.492 4.883-8.502 4.889a1 1 0 0 1-1.498-.867v-9.772Z"/></g><defs><linearGradient id="b" x1="40.641" x2="40.641" y1=".364" y2="80.364" gradientUnits="userSpaceOnUse"><stop stop-color="#fff"/><stop offset="1" stop-color="#fff" stop-opacity="0"/></linearGradient><linearGradient id="c" x1="40.641" x2="40.641" y1=".364" y2="80.364" gradientUnits="userSpaceOnUse"><stop stop-color="#fff"/><stop offset="1" stop-color="#fff" stop-opacity="0"/></linearGradient><filter id="a" width="104" height="104" x="-11.359" y="-11.636" color-interpolation-filters="sRGB" filterUnits="userSpaceOnUse"><feFlood flood-opacity="0" result="BackgroundImageFix"/><feGaussianBlur in="BackgroundImageFix" stdDeviation="6"/><feComposite in2="SourceAlpha" operator="in" result="effect1_backgroundBlur_2518_11093"/><feBlend in="SourceGraphic" in2="effect1_backgroundBlur_2518_11093" result="shape"/></filter></defs></svg>