<svg xmlns="http://www.w3.org/2000/svg" width="157" height="177" fill="none"><path fill="#0E0E10" d="M120.61 25.365c22.708 11.856-23.974 66.71-23.974 66.71s30.378-19.393 37.064.485c5.177 15.394-22.951 34.512-40.723 44.806 0 0 9.694 10.606 4.252 19.7-10.264 17.151-94.824-20.582-84.48-42.399 4.876-10.283 19.622-4.678 19.622-4.678 3.308-30.088 14.6-82.82 39.791-66.375 8.91-9.499 17.247-6.657 21.113-2.411 8.257-11.979 18.01-20.707 27.335-15.838"/><path stroke="#3B3B45" stroke-width="4" d="M72.656 82.282s8.77-23.887 20.62-41.08M56.79 74.908c4.805-16.051 10.185-25.763 15.371-31.293m-40.848 79.002c.168-3.3.51-7.649 1.057-12.627m46.165 35.256s6.56-3.314 14.44-7.879m-30.13-43.653c-4.644 6.502-7.353 14.948-8.585 20.847m27.077-12.859c-4.715 6.041-7.47 11.979-10.47 18.669m22.109 16.996c17.772-10.294 45.9-29.412 40.723-44.806-6.686-19.878-37.064-.485-37.064-.485s46.682-54.854 23.974-66.71c-9.325-4.869-19.078 3.859-27.335 15.838m-.298 96.163s9.694 10.606 4.252 19.7c-10.264 17.151-94.824-20.582-84.48-42.399 4.876-10.283 19.622-4.678 19.622-4.678m0 0c3.308-30.088 14.6-82.82 39.791-66.375m0 0c8.91-9.499 17.247-6.657 21.113-2.411"/></svg>